<svg xmlns="http://www.w3.org/2000/svg" viewBox="0 0 26.57 26.92"><defs><style>.cls-1{fill:#1b8fbb;}.cls-2{fill:#fff;}</style></defs><g id="Layer_2" data-name="Layer 2"><g id="Layer_1-2" data-name="Layer 1"><path class="cls-1" d="M7.45,4.33l-.06-.11-.56.27-.34-.57.44-.3,0-.05-.48.24-.32-.5.55-.39-.07-.1-.81.5,1,1.45Z"/><path class="cls-1" d="M5.29,6.05,4.35,5l.05-.06c.31.19.62.38.94.56a1.5,1.5,0,0,0,.32.1,1.77,1.77,0,0,0,0-.33c-.12-.36-.25-.71-.38-1.06l.07,0,.67.9s.14,0,.21.07,0-.16,0-.21C6,4.55,5.68,4.17,5.4,3.8a.31.31,0,0,0-.27,0C4.94,3.85,5,4,5,4.18c.14.35.27.7.4,1.05A1.71,1.71,0,0,1,4.92,5l-.44-.26c-.35-.2-.38-.19-.6.16.35.38.7.77,1.06,1.14C5,6.09,5.12,6.05,5.29,6.05Z"/><path class="cls-1" d="M7.7,4a.27.27,0,0,0,.18.11.91.91,0,0,0,.72-.87,1.06,1.06,0,0,0-.47-.87c-.37-.21-.69,0-1,.18a.21.21,0,0,0-.06.22Q7.37,3.37,7.7,4ZM7.51,2.5c.41-.15.82.21.86.74,0,.37,0,.48-.46.63-.18-.38-.34-.74-.52-1.09C7.31,2.62,7.38,2.55,7.51,2.5Z"/><path class="cls-1" d="M9.13,3.25a2.2,2.2,0,0,0,.17.25l.1,0a.91.91,0,0,0,0-.23C9.24,2.8,9.1,2.38,9,2c0-.07-.11-.11-.17-.17s-.08.19,0,.26C8.85,2.46,9,2.86,9.13,3.25Z"/><path class="cls-1" d="M4,20c0-.06,0-.17.06-.25a.66.66,0,0,0-.24.11c-.26.3-.51.61-.77.93l-.31-.23-.08.08.72.75.08-.07L3.23,21C3.49,20.66,3.75,20.33,4,20Z"/><path class="cls-1" d="M5.3,20.87H5.22l-.66,1-.08,0c.08-.35.15-.71.23-1.07,0-.18.07-.34-.18-.42L3.7,21.44c-.1.13-.14.24.09.27l.69-.93A9,9,0,0,1,4.29,22c0,.2,0,.35.24.4.26-.42.53-.84.79-1.27C5.35,21,5.3,21,5.3,20.87Z"/><path class="cls-1" d="M6.19,21.61l-.52-.38-.06.08.42.4-.32.54L5.24,22c.16.2.35.32.36.46s-.14.32-.22.48l-.5-.33-.07.1.69.5c.26-.48.5-.92.72-1.36A.18.18,0,0,0,6.19,21.61Z"/><path class="cls-1" d="M13.25,23.54a10,10,0,0,0,9.94-11,10,10,0,0,0-9.9-9.1A9.58,9.58,0,0,0,6,6.62a9.91,9.91,0,0,0-2.59,7.69A10,10,0,0,0,13.25,23.54Z"/><path class="cls-1" d="M10.18,3.18c.36.06.59-.05.68-.35-.61.31-.9.18-1-.45s0-.8.62-.78c0,0,.09-.05.14-.07s-.07-.12-.11-.12a1.26,1.26,0,0,0-.39,0c-.41.1-.57.36-.55.83A1,1,0,0,0,10.18,3.18Z"/><path class="cls-1" d="M19.11,4.4a1.3,1.3,0,0,0,.38.17c.05,0,.12-.06.24-.14-.63-.07-.8-.36-.58-.87a1.44,1.44,0,0,1,.25-.39.48.48,0,0,1,.8.05c.05,0,.12.09.18.14a.72.72,0,0,0-.72-.58,1,1,0,0,0-.77.71A.76.76,0,0,0,19.11,4.4Z"/><path class="cls-1" d="M19.94,4.88c.21.16.43.3.65.45l.06-.08-.47-.43.37-.54.46.29,0,0-.42-.35L21,3.67l.55.37.08-.1-.76-.56c-.31.46-.6.88-.88,1.31C19.93,4.74,19.91,4.86,19.94,4.88Z"/><path class="cls-1" d="M18.15,3.86c.06,0,.13-.06.15-.1.2-.43.4-.86.58-1.3,0-.06,0-.16,0-.25H18.7c-.2.48-.41,1-.6,1.44C18.08,3.71,18.13,3.79,18.15,3.86Z"/><path class="cls-1" d="M7.52,23.07a4.67,4.67,0,0,0-.27.65,6.78,6.78,0,0,1,.09-1.2.59.59,0,0,0,0-.22.49.49,0,0,0-.19.1c-.23.25-.46.51-.68.77l-.07,0c.09-.2.19-.4.27-.6.19-.45.19-.45,0-.58l-.73,1.48c.2.2.35.23.52,0s.43-.51.64-.76A5.39,5.39,0,0,1,7,23.82c0,.23,0,.36.31.36l.62-1.62C7.57,22.6,7.62,22.91,7.52,23.07Z"/><path class="cls-1" d="M21.56,5a2.6,2.6,0,0,1,.1.25c.06.2.1.41-.11.52s-.35-.06-.47-.22a.87.87,0,0,0-.17-.16l-.07.06.15.25a.58.58,0,0,0,.74.25c.21-.11.26-.36.14-.71l-.05-.12c-.09-.2-.09-.39.12-.51s.33.06.45.21l.17.19.12-.12a3,3,0,0,0-.5-.45.7.7,0,0,0-.51,0C21.49,4.61,21.48,4.83,21.56,5Z"/><path class="cls-1" d="M14.33,2.86c.64.08,1-.26,1-.95,0-.52-.21-.77-.9-.82-.17,0-.26,0-.27.24,0,.4-.06.81-.1,1.22C14,2.77,14.15,2.84,14.33,2.86Zm.08-1.41c0-.07.13-.16.21-.18a.39.39,0,0,1,.25.08.84.84,0,0,1,.14,1c-.12.29-.31.38-.7.31C14.34,2.24,14.36,1.84,14.41,1.45Z"/><path class="cls-1" d="M11.21,2.78c0-.17.08-.28.26-.28s.39-.14.47.16c0,.09.12.15.18.22l.13-.08c-.22-.52-.44-1-.67-1.56,0,0-.14-.06-.2-.05s-.18.09-.19.15c-.07.47-.13,1-.18,1.43,0,.06.05.14.08.2S11.21,2.85,11.21,2.78Zm.16-1.33h.09l.35.9-.54.09Z"/><path class="cls-1" d="M12.6,2.77h.71v-.1a.85.85,0,0,0-.22,0c-.27,0-.35-.09-.35-.35s0-.66,0-1a.71.71,0,0,0-.11-.21c0,.08-.12.16-.12.23,0,.43,0,.87.06,1.3C12.54,2.67,12.57,2.77,12.6,2.77Z"/><path class="cls-1" d="M17.38,3.41c.35-.43.68-.88,1.06-1.37-.43-.1-.49.26-.64.44a8.17,8.17,0,0,0-.5.7c0-.46,0-.89,0-1.32,0-.09-.08-.18-.12-.27l-.13,0c0,.55,0,1.11,0,1.66A.18.18,0,0,0,17.38,3.41Z"/><path class="cls-1" d="M16.43,3.1C16.25,3,16,3,15.91,2.87s.06-.4.1-.62l.54.1c-.12-.22-.51,0-.49-.42,0-.66.5-.22.76-.3V1.54c-.24-.06-.47-.14-.72-.19a.25.25,0,0,0-.2.16c-.11.49-.2,1-.3,1.51l.81.18Z"/><path class="cls-1" d="M16.82,23.42l-.12,1.84c.3-.25.15-.64.35-.92l.34.46c.1.15.22.19.37.07A3.41,3.41,0,0,1,16.82,23.42Z"/><path class="cls-1" d="M15.74,23.9a.84.84,0,0,0-.1-.22l-.12,0L15.66,25l-.06,0c-.13-.34-.26-.68-.41-1a1.18,1.18,0,0,0-.18-.21,1,1,0,0,0-.1.24c-.07.37-.13.75-.19,1.13h-.06l-.14-1.33c-.09.07-.14.09-.14.11,0,.51,0,1,.09,1.53,0,.05.12.14.18.13a.21.21,0,0,0,.17-.16c.08-.4.14-.8.21-1.21a5.36,5.36,0,0,1,.46,1c.06.13.1.34.3.22s.14-.23.12-.34C15.87,24.67,15.8,24.29,15.74,23.9Z"/><path class="cls-1" d="M18.77,22.63l0,.09.46-.18L19.88,24c.18-.19-.22-1.3-.54-1.65Z"/><path class="cls-1" d="M18.33,24.49,17.86,23h-.11a1.15,1.15,0,0,0,0,.26,7.88,7.88,0,0,0,.24.83c.08.24.19.48-.15.62,0,0,0,.07,0,.12a3.71,3.71,0,0,0,.9-.37l0-.09Z"/><path class="cls-1" d="M20.69,21.74a.88.88,0,0,0-.1-.22l-.11,0a2.13,2.13,0,0,0,0,.25c.08.24-.09.31-.24.4s-.25.1-.35-.06-.13,0-.19-.08,0,.18,0,.23c.27.32.55.64.84.94.06.06.22.11.27.07A.31.31,0,0,0,21,23C20.9,22.6,20.79,22.17,20.69,21.74Zm0,1.36-.58-.69.42-.31.24,1Z"/><path class="cls-1" d="M21.86,21.07a.43.43,0,0,0-.58-.17c-.27.14-.45.42-.35.65.18.44.42.85.64,1.27l.13,0a.65.65,0,0,0,0-.28c-.15-.28-.32-.55-.47-.83s-.2-.44.06-.59.37.07.48.24.37.56.56.84l.11,0c0-.09.07-.2,0-.26C22.27,21.64,22.07,21.35,21.86,21.07Z"/><path class="cls-1" d="M22.69,19.8a.5.5,0,0,0-.27.11c-.18.16-.34.33-.5.5,0,0,0,.05,0,.11l.22-.11a4.74,4.74,0,0,0,.25.64.61.61,0,0,0,.92.28.82.82,0,0,0,.23-.89A.92.92,0,0,0,22.69,19.8ZM23,21.22a.91.91,0,0,1-.65-1,.32.32,0,0,1,.53-.12,2.34,2.34,0,0,1,.47.69A.34.34,0,0,1,23,21.22Z"/><path class="cls-1" d="M18.61,22.89c0-.05-.06-.09-.09-.14h-.08a1,1,0,0,0,0,.24c.14.41.28.81.44,1.21,0,.07.1.11.16.16a.69.69,0,0,0,0-.24C18.92,23.72,18.77,23.3,18.61,22.89Z"/><path class="cls-1" d="M21.92,3.24A13,13,0,0,0,12.07,0,13.4,13.4,0,0,0,0,13.47,13.34,13.34,0,0,0,14.25,26.89,13.37,13.37,0,0,0,26.54,12.61,12.93,12.93,0,0,0,21.92,3.24ZM25,19.33a13.07,13.07,0,0,1-11.73,7.36,13.12,13.12,0,0,1-13-11.93A13,13,0,0,1,3.87,4.27a12.49,12.49,0,0,1,8.35-4A12.66,12.66,0,0,1,22.33,3.9a13,13,0,0,1,4,8.25A13,13,0,0,1,25,19.33Z"/><path class="cls-1" d="M10.93,24.12c-.33-.08-.28-.32-.37-.53-.06,0-.09,0-.09.05,0,.53,0,1.06.07,1.59a.28.28,0,0,0,.2.16s.14-.07.17-.13c.16-.36.3-.72.45-1.08.05-.13.08-.26.13-.41C11.18,23.75,11.3,24.21,10.93,24.12Zm-.14,1h-.07v-.94l.41.07Z"/><path class="cls-1" d="M12.53,24.1c0,.34,0,.69-.07,1h-.08c-.12-.39-.23-.78-.36-1.17a.26.26,0,0,0-.16-.13s-.11.06-.12.1c-.06.53-.11,1-.17,1.57l.11,0c.17-.14.14-.36.16-.57s0-.46.07-.68a.56.56,0,0,1,.13.22c.09.3.16.61.27.91,0,.09.16.15.25.22,0-.09.12-.17.12-.27q0-.63,0-1.26a.8.8,0,0,0-.05-.21C12.62,24,12.54,24,12.53,24.1Z"/><path class="cls-1" d="M9.89,23.44a.74.74,0,0,0-.52-.15c-.07,0-.14.21-.2.33a1.15,1.15,0,0,0-.06.17c-.1.34-.06.39.34.39,0,0-.06-.07-.06-.1a3.44,3.44,0,0,1,0-.56s.17-.1.19-.07.27.24.27.36a3,3,0,0,1-.19.89c-.09.23-.31.24-.52.1L9,24.67l0,.07a.56.56,0,0,0,.8.22A1.17,1.17,0,0,0,9.89,23.44Z"/><path class="cls-1" d="M13.58,24.35c-.36,0-.29-.35-.51-.48,0,.08-.05.11-.05.13.12.51.24,1,.37,1.53a.26.26,0,0,0,.18.12.24.24,0,0,0,.17-.13,1,1,0,0,0,.08-.26c.09-.45.18-.89.29-1.4C13.78,23.93,13.94,24.35,13.58,24.35Zm0,1h-.08l-.21-.93h.47Z"/><path class="cls-1" d="M8.59,23.22c.05.15-.07.36-.13.55l-.41-.11c.4.28.41.34.15.79l-.5-.14,0,.09.72.32.5-1.65-.67-.26C8.34,23,8.55,23.08,8.59,23.22Z"/><path class="cls-2" d="M9.31,8.34c.52-.5.34-.42.91-.06,0,0,0,0,0,.05l-.54.83.09.07A1.92,1.92,0,0,0,10,9.05c.12-.16.22-.33.34-.48a.29.29,0,0,1,.25-.07c.25.09.48.2.73.31l-.07.38.09.05.26-.35,1.44.25,1.45-.24.29.33.08-.07-.09-.35.85-.36c.33.16.35.64.71.76l.07-.07-.54-.83a1.56,1.56,0,0,0,.25-.17c.21-.2.39-.16.56,0s.5.57.76.85a1.59,1.59,0,0,0,.24.2l.05-.09a5.47,5.47,0,0,0-5.18-2.57A5.3,5.3,0,0,0,8.43,9.19.45.45,0,0,0,8.71,9C8.91,8.81,9.09,8.55,9.31,8.34Zm2.14.26-.78-.32c.38-.55,1.26-1,1.57-.86-.15.19-.3.36-.43.56A6.81,6.81,0,0,0,11.45,8.6ZM13,8.88l-1.3-.2a2.58,2.58,0,0,1,.8-1.12.52.52,0,0,1,.39,0c.06,0,.1.18.1.28C13,8.15,13,8.48,13,8.88Zm.24,0V7.58a.49.49,0,0,1,.7.17c.2.27.39.56.63.92Zm1.53-.28c-.28-.43-.54-.8-.81-1.21.09,0,.2,0,.28,0a3.42,3.42,0,0,1,1.32.9ZM14.7,7a4.74,4.74,0,0,1,1.54.77L15.93,8c-.14.12-.24.09-.39,0-.34-.29-.72-.55-1.12-.86C14.5,7.1,14.61,7,14.7,7ZM14.25,7a2.08,2.08,0,0,1-2.34,0A4,4,0,0,1,14.25,7Zm-2.54.2c-.38.3-.77.61-1.18.9,0,0-.18,0-.26,0a1.43,1.43,0,0,1-.3-.2C10.37,7.35,11.48,6.93,11.71,7.15Zm-4.08,12a2.79,2.79,0,0,1,.4.07l.18.08.07-.12C8.16,19.12,8,19,7.9,19a.82.82,0,0,0-.55.17c-.15.12-.06.38.15.47s.27.07.4.14.13.12.19.19-.16.17-.23.16A1.09,1.09,0,0,1,7.48,20a1.52,1.52,0,0,1-.17-.18.47.47,0,0,0,.71.5.53.53,0,0,0,.26-.36c0-.11-.14-.26-.25-.34a2.19,2.19,0,0,0-.41-.13s-.11-.08-.1-.12S7.59,19.17,7.63,19.17Zm3.54-6.05a.57.57,0,0,0-.54-.24h-.37c-.18,0-.25,0-.25.25s0,.53,0,.8c0,.77,0,.77.76.77.2,0,.38,0,.34-.32l.39.17a2.83,2.83,0,0,0,1.94.16,1.51,1.51,0,0,0,.32-2.83,2.2,2.2,0,0,0-.57-.23l-1.43-.43c-.11,0-.19-.16-.28-.24.11-.06.23-.18.35-.18a1.58,1.58,0,0,1,1.28.37,1.27,1.27,0,0,0,1.15.3.26.26,0,0,0,.19-.19c0-.42,0-.85,0-1.27a.23.23,0,0,0-.08-.18,1.3,1.3,0,0,0-1,.2L13,9.89a2.71,2.71,0,0,0-2.28,0,1.44,1.44,0,0,0-.36,2.3,2.74,2.74,0,0,0,.89.52c.51.2,1.05.33,1.57.5.09,0,.16.13.24.2-.09.06-.16.17-.25.18A1.71,1.71,0,0,1,11.17,13.12ZM9.12,14.69c.68,0,.58.07.59-.59s0-.58-.56-.62l-.12,0V11c.23,0,.55,0,.63-.14s0-.46.05-.69a.34.34,0,0,1,0-.1c0-.25-.06-.34-.32-.33H7.31c-.72,0-.72,0-.72.73,0,.55,0,.48.47.49a.78.78,0,0,1,.21,0v2.45c-.24.06-.55.05-.64.18s0,.46,0,.7v.09c0,.24.08.3.3.3ZM7,20.32V19A1.51,1.51,0,0,0,7,20.32Zm9.32-.2a2.52,2.52,0,0,0,.46-.5.57.57,0,0,0,.06-.47.56.56,0,0,0-.43-.19c-.13,0-.26.16-.38.24l.09.13a.58.58,0,0,1,.18-.11c.12,0,.24,0,.35,0s0,.25,0,.33a2.42,2.42,0,0,1-.32.32,4.51,4.51,0,0,0-.33.44h.8s.09,0,.13-.08-.09-.1-.14-.1A2.86,2.86,0,0,0,16.28,20.12Zm-2.81-2.23a5.06,5.06,0,0,0,4.21-2.68l-1.24,1.32-.57-.37.57-.86-.09-.08c-.34.16-.4.61-.72.8l-.85-.36.11-.38-.09-.06-.29.37-1.42-.26-1.43.26-.31-.36-.08.06.11.37-.89.38c-.12-.16-.22-.31-.34-.46l-.31-.38-.11.11.56.84a1,1,0,0,0-.2.15c-.25.25-.46.17-.66-.06S9,15.68,8.7,15.4a2.71,2.71,0,0,0-.25-.19C9,16.77,11.41,18,13.47,17.89Zm2.41-1.46a2,2,0,0,1,.3.2c-.48.52-1.53.9-1.76.69.39-.31.79-.62,1.2-.91C15.67,16.37,15.8,16.4,15.88,16.43ZM14.62,16a.25.25,0,0,1,.21-.09c.21.07.41.16.65.26-.45.56-1.26,1-1.56.88Zm-1.43-.4,1.29.17a2.55,2.55,0,0,1-.83,1.13c-.25.16-.46,0-.46-.26Zm1.07,1.92a5.39,5.39,0,0,1-2.33,0A2,2,0,0,1,14.26,17.54ZM13,15.62v1.3c-.48.11-.93-.29-1.24-1.13Zm-1.58.3c.05,0,.14.05.18.11.24.34.46.69.73,1.1a3,3,0,0,1-1.64-.92C10.92,16.1,11.14,16,11.37,15.92Zm-1.38.7a1.37,1.37,0,0,1,.3-.19.35.35,0,0,1,.3,0c.39.27.77.56,1.19.88-.11,0-.24.11-.33.07-.5-.21-1-.44-1.49-.66Zm8.19,2.79.25,0c0,.32,0,.62.06.92h.13V18.9l-.49.45Zm1.67-.1.08-.07c-.1-.1-.19-.26-.29-.27a.6.6,0,0,0-.43.13.92.92,0,0,0,0,1,.6.6,0,0,0,.45.15.52.52,0,0,0,.29-.34c.09-.37-.18-.56-.64-.47C19.34,19.12,19.36,19.12,19.85,19.31Zm-.34.33c.07.08.2.15.21.23s-.09.19-.19.37c-.12-.18-.24-.27-.23-.35S19.43,19.72,19.51,19.64ZM18.77,10A3.29,3.29,0,0,0,17,9.67,2.22,2.22,0,0,0,14.8,11.6c-.32,1.73.49,3,2.1,3.17a3.47,3.47,0,0,0,.91,0,2.17,2.17,0,0,0,2.14-2c0-.19,0-.37.05-.56A2.27,2.27,0,0,0,18.77,10Zm-.62,3c0,.41-.27.6-.72.62s-.76-.15-.79-.57a11.17,11.17,0,0,1,0-1.53c0-.36.28-.54.72-.56a.67.67,0,0,1,.77.5,6.45,6.45,0,0,1,.09.78C18.19,12.48,18.18,12.71,18.15,12.94Zm-3.38,6.42c0-.19,0-.19.32-.22a.53.53,0,0,0,.17-.08s0-.06,0-.08-.6,0-.63.08-.07.36-.1.54c.25.08.7-.23.63.28s-.41.07-.65.06a.39.39,0,0,0,.45.38.48.48,0,0,0,.43-.51C15.36,19.52,15.19,19.39,14.77,19.36Zm2.64-.42c-.27,0-.4.24-.4.69s.13.68.43.69.45-.21.45-.76a2,2,0,0,0-.05-.31A.37.37,0,0,0,17.41,18.94Zm.27.9a3.08,3.08,0,0,1-.24.27,2.64,2.64,0,0,1-.21-.29c0-.05,0-.12,0-.25s-.06-.42.24-.4.23.29.24.49A.28.28,0,0,1,17.68,19.84Zm-3.45-.43a.32.32,0,0,0-.31-.46c-.1,0-.28,0-.3.08a5.84,5.84,0,0,0-.18.83.42.42,0,0,0,.43.46.43.43,0,0,0,.39-.65A.46.46,0,0,1,14.23,19.41Zm-.33-.25s.12.09.13.15a.71.71,0,0,1-.06.23l-.14-.08-.14-.17A.6.6,0,0,1,13.9,19.16Zm0,.95c-.08-.08-.21-.16-.22-.26s.12-.16.25-.31c.1.16.2.26.19.34S14,20,13.87,20.11ZM9.09,18.94a.69.69,0,0,0,0,1.38.69.69,0,0,0,0-1.38Zm0,1.18a.49.49,0,0,1,0-1,.42.42,0,0,1,.44.47A.44.44,0,0,1,9.11,20.12Zm1.43-.7.25-.05c0,.34,0,.64.06.94H11V18.9l-.49.45ZM13.09,19a1.59,1.59,0,0,0-.68,1l.49,0,.11.34.28-.46h-.08Zm-.17.83h-.33l.33-.48ZM12.06,19a.56.56,0,0,0-.42-.05c-.1,0-.16.18-.27.31.27,0,.44-.37.64,0l-.24.18c.11.18.31.36.27.45-.15.38-.38.06-.58,0l-.08.09c.1.09.2.25.31.26a.58.58,0,0,0,.45-.13.83.83,0,0,0,.08-.48.79.79,0,0,0-.05-.3C12.14,19.26,12.14,19.08,12.06,19Z"/></g></g></svg>