<svg xmlns="http://www.w3.org/2000/svg" viewBox="0 0 53.96 26.2"><g id="Layer_2" data-name="Layer 2"><g id="Layer_1-2" data-name="Layer 1"><path d="M54,10.31c-.06,0-.16.09-.16.13a11.89,11.89,0,0,1-4,8c-3.92,3.53-11,4-14.53-.33.11,0,.25,0,.31.07a10.56,10.56,0,0,0,12.1,1.07A11.37,11.37,0,0,0,52.55,5.4c-.73-2.12-2.36-3.66-3.8-5.27.08,0,.2,0,.24,0,.7.76,1.7,1.22,2.18,2.19A7,7,0,0,1,52.75,4.7a7.05,7.05,0,0,1,.88,2.75,8.16,8.16,0,0,1,.19,1.1s.09,0,.14.06Z"/><path d="M36.65,7.84c0,1.27,0,2.54,0,3.81,0,.34-.12.34-.38.37a1.84,1.84,0,0,1-2-1.8c-.08-2.08.14-4.79-.09-6.75-.1-.21.08-.54.08-.82a1.38,1.38,0,0,1,1.14-1.37c2-.31,3.93,0,5.9-.15a6.71,6.71,0,0,1,6.94,5.52,20.51,20.51,0,0,1,.12,3.67A3.55,3.55,0,0,1,48,11.77a5.92,5.92,0,0,1-5.68,4q-3.31,0-6.63,0c-1.86,0-2-2.57-1.68-3.9a2.41,2.41,0,0,0,2,1.52c2,0,4.08,0,6.12,0a3.85,3.85,0,0,0,1.88-.52A2.79,2.79,0,0,0,45.21,11a3.92,3.92,0,0,0,.19-1.37c0-.22.16-.46.14-.69-.08-1.68-.2-3.63-1.69-4.7-2.11-1.05-4.64-.41-6.89-.59-.28,0-.32.09-.32.33C36.65,5.3,36.65,6.57,36.65,7.84Z"/><path d="M14.8,9.46c0,2,0,4,0,5.94,0,.23,0,.37-.31.34a4.47,4.47,0,0,1-1-.05,2.55,2.55,0,0,1-1.41-2c0-2.94,0-5.88,0-8.82a3.64,3.64,0,0,0-.8-2.2,1.59,1.59,0,0,0-2.51-.1A5.67,5.67,0,0,0,8.07,4,9.72,9.72,0,0,0,7.9,5.15c0,2.79,0,5.59,0,8.39a2.4,2.4,0,0,1-1.16,2c-.43.32-1,.14-1.44.17-.13-.13-.09-.43-.09-.62q0-5.73,0-11.45A2.85,2.85,0,0,1,6.51,1.33a1.22,1.22,0,0,1,.76-.19c1.73,0,3.47,0,5.2,0a2.4,2.4,0,0,1,2.34,2.48C14.8,5.56,14.8,7.51,14.8,9.46Z"/><path d="M28.45,15.74H24.17a1.55,1.55,0,0,1-1.64-1.61c0-1.87,0-3.74,0-5.6a1.83,1.83,0,0,1,1.82-1.78h8.57c.27,0,.36,0,.38.36A2.19,2.19,0,0,1,31,9.46c-1.71,0-3.42,0-5.13,0-1.29,0-2.78.78-2.52,2.26,0,.08,0,.2,0,.23.42.29.57.91,1.22.93.26,0,.51.25.79.31a3.82,3.82,0,0,0,.83,0c1.65,0,3.31,0,5,0a2.18,2.18,0,0,1,2.08,2.48C31.69,15.84,30.06,15.7,28.45,15.74Z"/><path d="M21.19,9.46V15.4c0,.23,0,.37-.3.34-.46,0-1.05.1-1.43-.18-.53-.5-1.22-.9-1.13-1.8a3.44,3.44,0,0,1-.16-1.71c0-2.57,0-5.15,0-7.72C18.24,2.49,16.45,1.74,15,1.2c1.22-.07,2.45-.08,3.67-.05,1.83,0,2.44,1.32,2.52,2.8C21.18,5.78,21.19,7.62,21.19,9.46Z"/><path d="M0,9.13Q0,6,0,2.94A1.53,1.53,0,0,1,.94,1.46a1.66,1.66,0,0,1,.79-.32c1-.06,1-.09,1,.94,0,3.9,0,7.8,0,11.7a2.2,2.2,0,0,1-.54,1.38c-.43.67-1.15.58-1.86.58-.28,0-.3-.11-.3-.34Q0,12.27,0,9.13Z"/><path d="M28.59,1.15c1.42,0,2.85,0,4.27,0,.42,0,.39,0,.43.38a2.32,2.32,0,0,1-1.11,2.15,1.42,1.42,0,0,1-.84.19c-2,0-4.08,0-6.12,0a3.35,3.35,0,0,0-1.7.54c-.22.12-.34.44-.48.69A1.39,1.39,0,0,0,22.7,6s-.06.07-.1.1a28,28,0,0,1-.06-3.44,2,2,0,0,1,2-1.47Z"/><path d="M45.56,24.28a16.87,16.87,0,0,1,.07-1.74,4.47,4.47,0,0,1,1.63.09A.92.92,0,0,1,47.59,24c-.15.2-.52.27-.43.59s.31.38.39.6a1,1,0,0,0,.4.6c.57-1,.82-2.26,1.45-3.22.06.06.16.12.18.2a29.22,29.22,0,0,0,1.17,3c0,.07,0,.25-.07.38-.15-.05-.37.14-.44-.21a.59.59,0,0,0-.76-.47,1.48,1.48,0,0,1-.42,0,.52.52,0,0,0-.6.36c-.05.11,0,.38-.26.32s-.51.11-.7-.15c-.4-.44-.7-1.39-1.33-1.36a.73.73,0,0,0-.11.34c0,.29,0,.57,0,.85s0,.33-.23.33-.28-.08-.28-.29C45.56,25.3,45.56,24.79,45.56,24.28Zm.5-.86c0,.3,0,1,.46.64.07,0,.22,0,.33,0a.41.41,0,0,0,.39-.43c0-.51-.3-.78-.93-.76C46,22.82,46.08,23.19,46.06,23.42Zm3.26,1.48c.36,0,.75.1.47-.23a2.91,2.91,0,0,0-.41-1.08.86.86,0,0,0-.3.72,1.61,1.61,0,0,0-.31.53A4.87,4.87,0,0,0,49.32,24.9Z"/><path d="M39,18.45a6,6,0,0,1,1.56.3,10,10,0,0,0,5-.58A9.58,9.58,0,0,0,51.36,7a3.83,3.83,0,0,1-.09-.72c.32.11.07.52.33.65,1.67,5.61-2.46,11.85-8.23,12.24a9.78,9.78,0,0,1-4.23-.51C39.08,18.6,39.05,18.51,39,18.45Z"/><path d="M26.73,19.43c-.06.61.19,1.34-.21,1.86-.12.14-.23,0-.34-.07s-.19,0-.28,0c-.88.26-1.39-.06-1.52-1,0-.13,0-.29-.18-.29H22.35c-.05,0-.15.21-.15.22.22.17.16.55.55.65s.47.25.71,0c.19-.1.59.1.32.32a1.35,1.35,0,0,1-1.92-.7c0-.19-.22-.45-.15-.55.24-.36.13-.85.56-1.14a1.34,1.34,0,0,1,.79-.14c.81-.05.92.29,1.23,1a4,4,0,0,0,.35-.52.83.83,0,0,1,.88-.5c.7,0,.7,0,.71-.69,0-.22-.11-.45.15-.49s.35.19.35.46C26.74,18.41,26.73,18.92,26.73,19.43Zm-.5.6c0-.35.08-.84-.26-1.05a.85.85,0,0,0-1.13.79C24.5,21,26.44,21.6,26.23,20ZM23,19.64h.67c.26,0,.12-.1.06-.23s-.13-.41-.4-.45c-.46,0-1,.09-1.14.61A2.19,2.19,0,0,0,23,19.64Z"/><path d="M18.33,20.86a4.69,4.69,0,0,1,.2-1.27c.13-.28,0-.56.15-.79.25-.39,0-.91.4-1.19.32.77.57,1.57.83,2.35a1,1,0,0,0,.18.18c.32-.76.49-1.58.77-2.36,0-.07.14-.12.21-.17.29.38.07,1,.31,1.45s.05.75.28,1.11,0,.7.19,1c0,0-.09.14-.13.14s-.33,0-.35-.11c-.27-.67-.15-1.65-.44-2.25-.34.76-.53,1.59-.83,2.36-.08-.07-.2-.13-.23-.23a6.84,6.84,0,0,1-.36-1.36c-.35-.08,0-.6-.31-.59s-.07.42-.2.6c-.33.44,0,1-.33,1.46-.11.15-.27.16-.33,0A1.79,1.79,0,0,1,18.33,20.86Z"/><path d="M23.66,26.09c-.85,0-1.3-.32-1.44-1.09-.08-.41-.19-.11-.32-.11-.5,0-1,0-1.51,0-.17,0-.22,0-.1.22.36.65.52.78,1.28.51.08,0,.19,0,.28,0-.17.87-1.59.42-1.87-.19s-.07-2.07.85-1.93a.91.91,0,0,0,.33,0c.56-.11.8.35,1,.75.1.13.11.07.19-.05s.34-.59.58-.67a3.81,3.81,0,0,1,1.17,0s.08.09.08.13c0,.33-.41.17-.76.21a.67.67,0,0,0-.74.76c0,.29-.11.59.16.87a1,1,0,0,0,1.14.15c.21-.09.21,0,.3.1s-.09.27-.16.28A2,2,0,0,1,23.66,26.09Zm-2.73-1.53c.25,0,.91.16.75-.28s-.64-.4-1.07-.39c-.16,0-.31.37-.26.55s.22.11.34.12A1.92,1.92,0,0,0,20.93,24.56Z"/><path d="M40,24.3c0-.58,0-1.17.06-1.75a11.5,11.5,0,0,1,1.66,0c.28,0,.41.39.56.65a.45.45,0,0,1-.08.59c-.12.13-.16.35-.3.45-.32.23-.17.47,0,.69a6.16,6.16,0,0,0,.56.78c.09.12.21.26,0,.34-.56.19-.8-.77-1.1-1.13a1.39,1.39,0,0,1-.11-.21c-.16-.24-.41-.17-.61-.14s-.11.28-.12.42a8,8,0,0,0,0,.85c0,.17,0,.25-.22.26s-.3,0-.3-.28C40,25.32,40,24.81,40,24.3Zm.5-.88a1.29,1.29,0,0,1,0,.34c-.08.34.27.37.38.39a1.61,1.61,0,0,0,.74-.13,1,1,0,0,0,.22-.73c-.12-.16-.26-.36-.42-.41a3.28,3.28,0,0,0-.83,0C40.45,23,40.53,23.25,40.51,23.42Z"/><path d="M14.47,24.33c0-.54,0-1.07,0-1.61a.25.25,0,0,1,.18-.18c.64,0,1.36-.13,1.84.41a2.17,2.17,0,0,1,.32,2.13c-.32,1-1.42,1.09-2.28,1A14.47,14.47,0,0,1,14.47,24.33Zm.5,0c0,.42,0,.84,0,1.26,0,.06.14.18.19.17a3.2,3.2,0,0,0,.81-.26c.25-.13.29-.41.37-.68.32-1.06-.05-1.76-1.09-1.93-.19,0-.31,0-.29.26C15,23.52,15,23.92,15,24.31Z"/><path d="M53.45,24.32a8.47,8.47,0,0,1-.06,1.75c-.77-.71-1.17-1.74-1.9-2.49a21.31,21.31,0,0,0-.05,2.26c0,.17,0,.25-.22.26s-.3-.05-.29-.28c0-1,0-2,0-3.05,0-.08.09-.16.14-.24a15.34,15.34,0,0,1,1.71,2.27.17.17,0,0,0,.32-.07c0-.67,0-1.35,0-2,0-.06.08-.12.13-.17s.19.12.19.18C53.46,23.24,53.45,23.78,53.45,24.32Z"/><path d="M0,24.31v-1c0-.77,0-.75.72-.77,2.2-.13,2.16,3.72,0,3.57C.49,26,0,26.26,0,25.84S0,24.82,0,24.31Zm1.84,0a1.74,1.74,0,0,0-.18-1c-.33-.24-1.24-.81-1.32-.06s0,1.4,0,2.1c0,.35.3.49.64.34A1.29,1.29,0,0,0,1.86,24.28Z"/><path d="M49.42,11.67a14.68,14.68,0,0,0,.33-3.25,10.2,10.2,0,0,0-3-6.6c.09,0,.21,0,.25,0a8.87,8.87,0,0,1,2,2.36A16,16,0,0,1,50.07,7a2.83,2.83,0,0,1,0,1.09,6.32,6.32,0,0,1-.43,3C49.59,11.31,49.77,11.63,49.42,11.67Z"/><path d="M0,19.45a7.93,7.93,0,0,1,.07-1.83c.51.77,1.14,1.46,1.61,2.26a.22.22,0,0,0,.2.09A.21.21,0,0,0,2,19.81c0-.48,0-1,0-1.44,0-.23,0-.45,0-.68,0,0,.08-.08.12-.08s.25.09.21.26a32.94,32.94,0,0,1-.07,3.45A16.05,16.05,0,0,0,.4,18.83a21.25,21.25,0,0,0-.05,2.26c0,.08-.08.23-.14.24s-.2-.12-.2-.27C0,20.53,0,20,0,19.45Z"/><path d="M7.91,24.79c0,.31,0,.62,0,.93s.07.39-.27.38-.22-.26-.23-.42c0-.51,0-1,0-1.52,0-.15,0-.3-.2-.27s-.24-.05-.32.16c-.24.63-.57,1.23-.81,1.86-.1.26-.17.14-.24,0a2.28,2.28,0,0,1-.4-.75A9,9,0,0,0,5,24.09c-.08-.24-.27-.64.16-.5.44.42.37,1.29.84,1.63,0,0,.06-.1,0-.15,0-.27.17-.44.25-.66s.16-.69.37-.83.6,0,.9,0,.36,0,.34.32S7.91,24.48,7.91,24.79Z"/><path d="M3.64,18.62c.33,0,.63-.09.88.21a1.56,1.56,0,0,1,.38,1c0,.43-.14.89.15,1.29,0,.14-.16.21-.26.17s-.32-.47-.58-.23a.92.92,0,0,1-1.5-.34c-.1-.2.19-.77.47-.94A1.5,1.5,0,0,1,4,19.64c.15,0,.35.09.36-.2S4.29,19,4,19s-.5-.14-.7.1S3,19,2.88,18.88C3.05,18.56,3.36,18.63,3.64,18.62ZM4.05,20c-.11,0-.23,0-.33,0a.76.76,0,0,0-.51.67c.17.65,1.12.35,1.17-.28C4.42,20,4.39,20,4.05,20Z"/><path d="M14.14,18.62c.24.05.53-.1.76.17a1.58,1.58,0,0,1,.42,1c0,.46-.14.94.15,1.37,0,0,0,.11-.05.14s-.3-.09-.4-.18-.26-.19-.41,0-.18,0-.22.07c-.47.52-1,0-1.26-.44s.57-1.21,1.09-1.09c.16,0,.43.05.55-.06a.33.33,0,0,0,0-.22.82.82,0,0,0-1.14-.31c-.21.12-.19-.1-.3-.13C13.51,18.49,13.75,18.63,14.14,18.62Zm0,1.36a1,1,0,0,0-.34,0c-.14.05-.27.61-.2.74a.76.76,0,0,0,.74.24c.27-.12.63-.79.28-1A2.2,2.2,0,0,0,14.19,20Z"/><path d="M32.45,20a1.71,1.71,0,0,0,.16,1c0,.06,0,.2,0,.31s-.25,0-.28-.08c-.17-.37-.46-.13-.58,0a.66.66,0,0,1-.88,0c-.13-.1-.34-.16-.37-.27s-.1-.53,0-.66.42-.7.91-.6a.76.76,0,0,0,.26,0c.12,0,.28.07.32-.15s-.11-.52-.3-.52-.56-.12-.79.14c0,0-.17-.05-.26-.08.08-.52.71-.41,1.09-.41C32.5,18.61,32.48,19.38,32.45,20Zm-.76,0c-.14,0-.28,0-.41,0s-.52.52-.47.64a.86.86,0,0,0,.6.38.81.81,0,0,0,.7-.55C32.18,20.06,32.11,20,31.69,20Z"/><path d="M10.77,20v-.94c0-.37,0-.36.4-.29.07,0,.19,0,.22,0,.15-.2.35-.13.54-.12s.53-.13.7.11A3.61,3.61,0,0,1,13,21c0,.11-.13.23-.22.33s-.26,0-.27-.13c0-.59,0-1.19,0-1.78s-.58-.49-.9-.41a.43.43,0,0,0-.28.45q0,.72,0,1.44c0,.13-.18.51-.35.46s-.14-.09-.14-.15C10.76,20.79,10.77,20.39,10.77,20Z"/><path d="M35.28,23.56c.58-.18,1.4.46,1.18,1.06s-1.08.18-1.53.29c-.1,0-.28,0-.28.09a.65.65,0,0,0,.05.39c.27.41.54.45,1.14.25a.72.72,0,0,1,.29,0c-.05.13-.06.36-.21.41a2.21,2.21,0,0,1-1.19-.1C33.7,25.48,34,23.23,35.28,23.56Zm0,1c.29,0,.86.17.71-.32,0-.12-.13-.3-.22-.31a2.6,2.6,0,0,0-.88,0,.4.4,0,0,0-.24.47c0,.23.17.16.3.17S35.15,24.56,35.26,24.56Z"/><path d="M27.29,23.54c.27,0,.51-.06.72.18a1.56,1.56,0,0,1,.41,1.18c0,.81-.39,1.19-1.18,1.19-1.25.14-1.53-1.57-.77-2.37C26.72,23.41,27,23.61,27.29,23.54Zm-.72,1.24v.33a.63.63,0,0,0,.45.62c.79.28,1.1-.86.77-1.54-.07-.18-.1-.32-.36-.32C26.8,23.89,26.57,24.1,26.57,24.78Z"/><path d="M9.3,18.55a.93.93,0,0,1,1,.61c.13.29.47.62.14,1.1-.19.26-.14.7-.52.91a1.33,1.33,0,0,1-1.86-.76,1.93,1.93,0,0,1,.36-1.52C8.59,18.68,9,18.66,9.3,18.55Zm0,.41c-.85-.14-.88,1-.64,1.55C9.67,22.2,11,19,9.32,19Z"/><path d="M3.79,23.55c.48-.12.79.15,1,.65s.08.69-.4.7-.89,0-1.34,0c-.21,0-.21.15-.15.29.24.64.91.66,1.53.4a.21.21,0,0,1,0,.37A1.86,1.86,0,0,1,3,26c-.28-.26-.62-.5-.48-1a1,1,0,0,0,0-.43,1,1,0,0,1,1-1Zm-.25,1c.34,0,.92.18.84-.28s-.63-.4-1-.39c-.18,0-.53.38-.49.56s.31.07.47.11S3.48,24.56,3.54,24.56Z"/><path d="M11.61,26.09c-.26,0-.51.06-.77-.16a2.55,2.55,0,0,1-.57-1c.06-.53.49-1.5,1.2-1.35.33.06.74-.13,1,.26a4.19,4.19,0,0,1,.33.71c.06.17-.17.38-.42.39H10.94c-.44.1.13.85.37.83a1.87,1.87,0,0,0,.79-.09c.22-.09.2.12.31.14C12.23,26.22,12,26.08,11.61,26.09Zm-.12-1.53c.25,0,.6.09.79-.08-.1-.2-.15-.49-.31-.57a.86.86,0,0,0-1.17.5c0,.3.29.1.45.15A1,1,0,0,0,11.49,24.56Z"/><path d="M32.11,24.91c0,.33-.08.69.16,1,0,0-.17.18-.19.16-.25-.15-.45-.28-.73,0-.08.08-.32,0-.48,0a.72.72,0,0,1-.73-1,2.31,2.31,0,0,1,1.12-.74c.15-.06.24.38.34,0a.4.4,0,0,0-.36-.53,1.21,1.21,0,0,0-.63.09c-.21.11-.2-.11-.3-.13.07-.1.13-.28.21-.29a7.79,7.79,0,0,1,1.08,0C32.21,23.73,32.12,24.38,32.11,24.91Zm-.5.2c0-.39,0-.43-.42-.38s-.83.7-.49,1A.62.62,0,0,0,31.61,25.11Z"/><path d="M29.68,18.62c.19.06.88.13.31.49-.16-.24-.41-.11-.61-.15-.41-.08-.57.17-.71.5a1.08,1.08,0,0,0,.7,1.53c.3,0,.57-.28.89-.07,0,.08-.07.21-.14.24a1.32,1.32,0,0,1-1.79-.35A1.35,1.35,0,0,1,28.49,19C28.81,18.61,28.82,18.62,29.68,18.62Z"/><path d="M24.72,24.73c-.06-.3.19-.86-.29-.88l0-.29c.29,0,.28-.17.27-.37s0-.34.23-.33.31.08.27.29.1.45.41.4c.05,0,.13,0,.16,0s.15.27,0,.33-.6-.14-.59.22,0,.73,0,1.09.1.51.52.56c.13,0,.3,0,.32.14s0,.13,0,.15A1.26,1.26,0,0,1,25,25.9C24.57,25.64,24.77,25.13,24.72,24.73Z"/><path d="M33.46,19c.08.7-.27,1.55.42,2,0,0,0,.19,0,.28-.44.19-1-.33-.95-.81,0-.84,0-1.69,0-2.54,0-.18,0-.33.18-.43s.3-.09.32.12C33.46,18.08,33.46,18.53,33.46,19Z"/><path d="M9.43,26.08c-1.12.27-1.59-1.3-1-2.06.19-.29.44-.58.88-.48.26.06.54,0,.8.09.06,0,.14.17.12.22S10,24,10,24c-.14-.2-.36-.12-.54-.12-.59,0-.84.25-.85.9s.25.93.79,1c.21,0,.45.09.61-.14.14.12.33.16.14.36S9.66,26,9.43,26.08Z"/><path d="M5.56,19.9c-.07-.32.21-.93-.28-1,0,0,0-.14,0-.22.46-.05.28-.43.35-.68s.27-.05.31.05-.12.63.26.55h.08c.17.05.47-.15.49.13s-.33.18-.5.19-.34.07-.33.33c0,.64-.22,1.84.8,1.68.08,0,.16-.22.21,0a.72.72,0,0,1-.08.37c-.36,0-.78.19-1.08-.22S5.61,20.31,5.56,19.9Z"/><path d="M32.78,24.71c-.06-.26.18-.85-.23-.84,0,0,0-.17-.08-.26.41,0,.29-.36.32-.61a.17.17,0,0,1,.32,0c0,.46.22.58.62.55.07,0,.21.09.22.15,0,.22-.14.18-.27.18s-.44-.06-.55.08a4,4,0,0,0,.09,1.47c.09.21.15.41.44.33a.62.62,0,0,1,.33,0,.2.2,0,0,1,.13.16c-.07.3-.48.14-.71.17C32.7,26,32.76,25.25,32.78,24.71Z"/><path d="M39,24.22c0-.48,0-1,0-1.44,0-.16,0-.26.22-.26s.29,0,.29.27c0,1,0,2,0,3.05,0,.16,0,.25-.22.26s-.3,0-.29-.28C39,25.29,39,24.75,39,24.22Z"/><path d="M44.88,24.35c0,.51,0,1,0,1.52,0,.2-.09.23-.26.23s-.25,0-.25-.23V22.74c0-.19.09-.22.25-.22s.26,0,.26.22C44.88,23.28,44.88,23.82,44.88,24.35Z"/><path d="M18.33,24.82c.05-.37-.14-1,.14-1.27,0,0,.06,0,.08,0,.4.19.8-.08,1.2,0,.14,0,.08.29,0,.32a2.88,2.88,0,0,1-.42,0c-.36,0-.48.13-.49.49s0,1,0,1.44c0,.24-.09.28-.29.28s-.23-.1-.22-.26C18.34,25.5,18.33,25.16,18.33,24.82Z"/><path d="M28.79,23.43c.18.18.35.42.41.4s.28-.35.55-.29a.42.42,0,0,1,.35.13c-.06.07-.12.2-.18.2-1.17-.06-.76,1.27-.83,2,0,.23-.17.19-.29.17s-.21-.1-.21-.16c0-.73,0-1.47,0-2.2C28.59,23.65,28.69,23.58,28.79,23.43Z"/><path d="M15.81,19.15c0-.51,0-1,0-1.53,0-.06.13-.12.19-.18s.13.11.13.17c0,.82,0,1.64,0,2.46a.75.75,0,0,0,.39.77c.08,0,.09.23.1.36s-.1.14-.15.13C15.45,21.2,15.9,19.87,15.81,19.15Z"/><path d="M7.75,20c0,.39,0,.78,0,1.17,0,.07-.06.17-.11.18a.42.42,0,0,1-.39-.51A9,9,0,0,0,7.18,19c-.12-.09-.42-.13-.25-.28s.5-.06.76-.07A6.36,6.36,0,0,1,7.75,20Z"/><path d="M27.74,20.07c0,.42.12.9-.12,1.27-.09-.05-.22-.08-.27-.15a5.74,5.74,0,0,1-.11-1.81c0-.22,0-.44-.29-.46,0,0-.06-.1,0-.13.08-.26.35-.14.55-.17s.3,0,.29.27C27.73,19.28,27.74,19.68,27.74,20.07Z"/><path d="M17.83,24.89v.92c0,.14,0,.3-.19.28s-.14-.2-.14-.32c0-.53,0-1.06,0-1.59,0-.29-.13-.33-.35-.29s-.17-.28,0-.34.33,0,.49,0,.23.09.22.26C17.82,24.16,17.83,24.52,17.83,24.89Z"/><path d="M43.27,26.2c-.17-.19-.33-.3-.39-.45s.24-.33.46-.34.11.36.33.39Z"/><path d="M7.9,22.65c0,.28,0,.41-.24.39s-.26,0-.25-.22C7.37,22.41,7.68,22.49,7.9,22.65Z"/><path d="M27.54,17.54l.33.28c-.1.1-.19.26-.3.28s-.21-.14-.32-.22Z"/><path d="M7.56,17.54l.32.29c-.11.1-.21.25-.33.27s-.2-.15-.31-.24Z"/><path d="M18,22.77c-.12.1-.23.26-.31.25s-.25-.16-.37-.25c.11-.08.21-.22.32-.23S17.88,22.68,18,22.77Z"/><path d="M46.23,1.48a.42.42,0,0,1,.5.34A.41.41,0,0,1,46.23,1.48Z"/><path d="M38.5,18.28c.16.07.42-.15.5.17C38.84,18.39,38.58,18.61,38.5,18.28Z"/><path d="M51.27,6.24c-.33-.08-.11-.35-.17-.51C51.42,5.81,51.2,6.07,51.27,6.24Z"/><path d="M49.45,11.82l-.13.17c0-.13-.11-.22,0-.32Z"/><path d="M51,5.79c0-.27-.1-.35.08-.36C51.09,5.6,51.15,5.64,51,5.79Z"/><path d="M38.16,18.11c.13,0,.32-.08.34.17C38.37,18.26,38.18,18.37,38.16,18.11Z"/><path d="M37.83,18c.12,0,.32-.09.33.16C38,18.09,37.84,18.2,37.83,18Z"/><path d="M37.67,18l-.17-.13c.13-.05.23-.12.33,0Z"/><path d="M35,17.78l.17.17Z"/><path d="M35,17.78l-.17-.17Z"/><path d="M34.73,17.61l-.08-.1c.13-.07.11,0,.15.1Z"/><path d="M49.25,12.26c-.06,0-.12.09-.17,0S49.2,12.17,49.25,12.26Z"/><path d="M50.87,5.07l.06.06c-.06,0-.12.09-.17,0Z"/><path d="M46.15,1.48l-.08-.1c.14-.06.12,0,.16.1Z"/><path d="M48.67.13,48.6,0c.13-.07.11,0,.15.1Z"/><path d="M35.14,18l.16.16Z"/></g></g></svg>