<svg xmlns="http://www.w3.org/2000/svg" viewBox="0 0 1922.79 1078.27"><defs><style>.cls-1{fill:#ed1c24;}.cls-2{font-size:380px;}.cls-2,.cls-3{fill:#fff;font-family:Century;}.cls-3{font-size:430px;}</style></defs><g id="Layer_2" data-name="Layer 2"><g id="Layer_2-2" data-name="Layer 2"><path class="cls-1" d="M0,498.86c43.93-1.36,87.86-2.45,131.79-3.55l65.9-1.54,16.48-.36,8.23-.17,2.06-.05a6.77,6.77,0,0,1,4.34,1.23,7.08,7.08,0,0,1,2.61,4l1.17,3.95L242,534,279.24,660.4l18.51,63.25L307,755.28l2.31,7.91,1.15,3.95.57,2,.29,1c.6.18-3-6.7-6.87-7a10.17,10.17,0,0,0-10.8,3.22c-3.13,5-2,5.33-2.15,4.22l.33-2,.65-4.07,1.32-8.13,21.08-130.11,21.31-130.07,10.75-65,5.4-32.51,2.7-16.25.17-1c-.87,2.83,1.65-9.76,8.3-12.2a17.31,17.31,0,0,1,18.86.76c6.49,3.3,7.89,15.24,7.28,12.45l.53,4.08,1.06,8.17,16.84,130.72q33.5,261.46,65.43,523.12l.5,4.08.12,1c1-.14-4.05-14.21-11.82-16a20.24,20.24,0,0,0-21.88,3.3c-7.38,7-6.9,15.44-6.62,12l1.13-8.16,2.28-16.32,4.57-32.63,9.14-65.26L469.37,800q18.56-130.49,37.36-260.93l18.92-130.43,19.08-130.41L564,147.84l9.71-65.18,4.86-32.59L581,33.78l1.22-8.15.61-4.07.31-2,.15-1a24.9,24.9,0,0,1,.54-2.95C585.25,8,593.45.77,600.81.25c7.16-1.3,16.4,2.53,20.51,10,4,9.58,1.26,3.23,2.22,5.62l.27,1,1.05,4,2.1,8,4.21,15.93,8.41,31.86,16.77,63.73,33.4,127.5L723,395.39l16.51,63.8,8.23,31.9.51,2,.26,1c1.21,3-2.35-7.68-7.19-8.5-7.39-2.4-6-1-5.42-1.39h1l2.06,0,8.23.08,16.48.16,131.79,1.24,131.8,1.41L1159,488.63l131.79,1.65,131.8,1.81,131.79,2q131.79,2.11,263.59,4.76-131.79,2.76-263.59,4.76l-131.79,2-131.8,1.81L1159,509.08l-131.79,1.51L895.44,512l-131.79,1.25-16.48.15-8.23.08-2.06,0h-1c-.09-.44.57,1.15-7.46-1.57-5.5-1.1-9.34-12.52-8.26-10.15l-.28-1-.57-2-9-31.69-18.05-63.38L656.26,276.94,620.54,150.07,602.75,86.62l-8.88-31.73L589.44,39l-2.21-7.94-1.11-4-.28-1c.76,1.74-2.08-5.31,1.63,3.65,3.78,6.87,12.27,10.38,18.76,9.19,6.68-.44,14.25-7.12,15.55-14,.69-3.52.11-.39.23-.91l-.14,1-.27,2L621,31.18l-1.11,8.16-2.21,16.33-4.46,32.64-8.94,65.29-18,130.56L568.11,414.69,549.75,545.2q-18.42,130.5-37.2,260.95L493.71,936.59l-9.5,65.21-4.74,32.61-2.39,16.3-1.19,8.15c.16-2.82.65,6.35-7.3,13.85a22,22,0,0,1-23.81,3.57c-8.43-2.07-13.82-16.86-12.84-17.67l-.11-1-.47-4.09Q401.2,791.64,372.43,529.61l-14.26-131-.88-8.19-.44-4.09c-.65-3.46.63,7.71,6.51,10.63a15.48,15.48,0,0,0,16.91.67c6-2.09,8.35-13.93,7.39-10.44l-.19,1-3.06,16.19-6.12,32.38L366,501.48,341.2,630.93l-25,129.42-1.57,8.08-.78,4.05-.39,2c-.26-.45.85.63-2.73,6.17A12,12,0,0,1,298,784.43c-4.54-.43-8.58-8-8.11-8.46l-.25-1-.52-2-1-4-2-8L278,729.07,261.68,665.2,229.41,537.39l-8-32-1-4c-.3-1.22,0,.81,1.73,2.2,2.12,1.23,3.53.84,2.34.89l-2.06,0-8.23-.18L197.69,504l-65.9-1.55C87.86,501.3,43.93,500.21,0,498.86Z"/><text class="cls-2" transform="translate(585.56 860.11)">STORE</text><text class="cls-3" transform="translate(843.56 430.11)">IVF</text></g></g></svg>