<svg xmlns="http://www.w3.org/2000/svg" xmlns:xlink="http://www.w3.org/1999/xlink" viewBox="0 0 618.9 295.9"><defs><style>.cls-1{fill:url(#linear-gradient);}.cls-2{fill:url(#linear-gradient-2);}.cls-3{fill:url(#linear-gradient-3);}.cls-4{fill:#fff;}</style><linearGradient id="linear-gradient" x1="482.07" y1="207.78" x2="665.17" y2="-180.51" gradientTransform="matrix(1, 0, 0, -1, 0, 358.61)" gradientUnits="userSpaceOnUse"><stop offset="0" stop-color="#1ba3b2"/><stop offset="1" stop-color="#10febf"/></linearGradient><linearGradient id="linear-gradient-2" x1="372.9" y1="675.71" x2="615.4" y2="675.71" gradientTransform="translate(0 -546.61)" gradientUnits="userSpaceOnUse"><stop offset="0" stop-color="#1ba3b2"/><stop offset="1" stop-color="#251d66"/></linearGradient><linearGradient id="linear-gradient-3" x1="663.26" y1="413.74" x2="-50.41" y2="95.19" xlink:href="#linear-gradient"/></defs><g id="Layer_2" data-name="Layer 2"><g id="Layer_1-2" data-name="Layer 1"><polygon class="cls-1" points="372.9 258.2 585.5 295.9 497 131.6 585.5 31.3 374.3 31.3 372.9 258.2"/><polygon class="cls-2" points="372.9 258.2 615.4 205.6 614 0 372.9 0 372.9 258.2"/><polygon class="cls-3" points="0 205.6 40.8 102.8 0 0 618.9 0 618.9 205.6 0 205.6"/><path class="cls-4" d="M81.5,113.43v34h-20V50.84H99.19a45,45,0,0,1,19.18,3.95A28.53,28.53,0,0,1,131,66.08a31.49,31.49,0,0,1,4.49,16.74c0,9.52-3.27,16.87-9.8,22.45s-15.51,8.16-26.94,8.16Zm0-16.05H99.32c5.31,0,9.26-1.23,12.11-3.68s4.09-6,4.09-10.61-1.36-8.57-4.22-11.43-6.67-4.35-11.57-4.49H81.5Z"/><path class="cls-4" d="M188.45,93.7a44.76,44.76,0,0,0-6.8-.54q-11,0-14.29,7.35v47.08H148.17V75.74h18.1l.55,8.57c3.81-6.66,9.25-9.93,16.05-9.93a17.26,17.26,0,0,1,6,1Z"/><path class="cls-4" d="M230.77,148.81c-10.48,0-19.05-3.26-25.72-9.66s-9.93-15.1-9.93-25.85v-1.91a42.43,42.43,0,0,1,4.22-19.32,30.21,30.21,0,0,1,11.84-13.2,33.16,33.16,0,0,1,17.55-4.62c9.8,0,17.55,3.13,23.27,9.25s8.44,15,8.44,26.4v7.89H214.58a18.25,18.25,0,0,0,5.58,11.29A16.82,16.82,0,0,0,232,133.3c7.34,0,13.2-2.72,17.28-8l9.52,10.48a27.93,27.93,0,0,1-11.7,9.53A35.92,35.92,0,0,1,230.77,148.81Zm-2.18-58.92a11.83,11.83,0,0,0-9.25,3.81,19.61,19.61,0,0,0-4.49,11h26.81v-1.5c-.14-4.22-1.23-7.62-3.4-9.93C235.81,91,232.68,89.89,228.59,89.89Z"/><path class="cls-4" d="M268.33,111a43.1,43.1,0,0,1,4.08-19.06A29.5,29.5,0,0,1,284.25,79a35.21,35.21,0,0,1,18-4.63c9.66,0,17.55,3,23.81,8.85s9.53,14,10.21,24.22l.14,4.9c0,11-3.13,19.86-9.26,26.53s-14.42,9.93-24.76,9.93-18.65-3.26-24.77-9.93-9.25-15.65-9.25-27.08V111Zm19.18,1.36c0,6.8,1.23,12,3.81,15.64s6.26,5.45,11,5.45a12.75,12.75,0,0,0,10.88-5.31c2.59-3.54,3.95-9.25,3.95-17.14,0-6.67-1.36-11.84-3.95-15.52a12.74,12.74,0,0,0-11-5.58,12.39,12.39,0,0,0-10.89,5.45C288.74,99,287.51,104.73,287.51,112.35Z"/><path class="cls-4" d="M388.48,93.7a44.76,44.76,0,0,0-6.8-.54q-11,0-14.29,7.35v47.08H348.2V75.74h18.1l.55,8.57c3.81-6.66,9.25-9.93,16-9.93a17.3,17.3,0,0,1,6,1Z"/><path class="cls-4" d="M394.88,111.12c0-11.16,2.45-20.14,7.48-26.81S414.2,74.38,423,74.38a21.52,21.52,0,0,1,17.29,7.89V45.53h19.32V147.59H442.37l-1-7.62a22.48,22.48,0,0,1-18.5,9A24.54,24.54,0,0,1,402.5,139C397.33,132.21,394.88,123,394.88,111.12Zm19.18,1.36c0,6.81,1.23,12,3.54,15.51a11.54,11.54,0,0,0,10.21,5.45c6,0,10.07-2.45,12.52-7.49V97.51c-2.32-5-6.54-7.48-12.39-7.48C418.69,89.89,414.06,97.51,414.06,112.48Z"/><path class="cls-4" d="M507.55,148.81c-10.48,0-19.05-3.26-25.72-9.66s-9.94-15.1-9.94-25.85v-1.91a42.56,42.56,0,0,1,4.22-19.32A30.21,30.21,0,0,1,488,78.87a33.18,33.18,0,0,1,17.56-4.62c9.79,0,17.55,3.13,23.26,9.25s8.44,15,8.44,26.4v7.89H491.35a18.25,18.25,0,0,0,5.58,11.29,16.84,16.84,0,0,0,11.84,4.22c7.35,0,13.2-2.72,17.28-8l9.53,10.48a28.06,28.06,0,0,1-11.7,9.53A36,36,0,0,1,507.55,148.81Zm-2.18-58.92a11.83,11.83,0,0,0-9.25,3.81,19.47,19.47,0,0,0-4.49,11H518.3v-1.5c-.14-4.22-1.23-7.62-3.41-9.93S509.45,89.89,505.37,89.89Z"/><path class="cls-4" d="M588.37,93.7a44.67,44.67,0,0,0-6.8-.54q-11,0-14.29,7.35v47.08H548.1V75.74h18.09l.55,8.57c3.81-6.66,9.25-9.93,16.06-9.93a17.24,17.24,0,0,1,6,1Z"/></g></g></svg>