<?xml version="1.0" encoding="utf-8"?>
<!-- Generator: Adobe Illustrator 25.2.1, SVG Export Plug-In . SVG Version: 6.00 Build 0)  -->
<svg version="1.1" id="Layer_1" xmlns="http://www.w3.org/2000/svg" xmlns:xlink="http://www.w3.org/1999/xlink" x="0px" y="0px"
	 viewBox="0 0 618.9 295.9" style="enable-background:new 0 0 618.9 295.9;" xml:space="preserve">
<style type="text/css">
	.st0{fill:url(#SVGID_1_);}
	.st1{fill:url(#SVGID_2_);}
	.st2{fill:url(#SVGID_3_);}
	.st3{fill:#FFFFFF;}
</style>
<linearGradient id="SVGID_1_" gradientUnits="userSpaceOnUse" x1="482.071" y1="88.1139" x2="665.1709" y2="476.404" gradientTransform="matrix(1 0 0 1 0 62.7244)">
	<stop  offset="0" style="stop-color:#1BA3B2"/>
	<stop  offset="1" style="stop-color:#10FEBF"/>
</linearGradient>
<polygon class="st0" points="372.9,258.2 585.5,295.9 497,131.6 585.5,31.3 374.3,31.3 "/>
<linearGradient id="SVGID_2_" gradientUnits="userSpaceOnUse" x1="372.9" y1="166.1756" x2="615.4" y2="166.1756" gradientTransform="matrix(1 0 0 -1 0 295.2756)">
	<stop  offset="0" style="stop-color:#1BA3B2"/>
	<stop  offset="1" style="stop-color:#251D66"/>
</linearGradient>
<polygon class="st1" points="372.9,258.2 615.4,205.6 614,0 372.9,0 "/>
<linearGradient id="SVGID_3_" gradientUnits="userSpaceOnUse" x1="663.263" y1="-117.8483" x2="-50.4077" y2="200.6976" gradientTransform="matrix(1 0 0 1 0 62.7244)">
	<stop  offset="0" style="stop-color:#1BA3B2"/>
	<stop  offset="1" style="stop-color:#10FEBF"/>
</linearGradient>
<polygon class="st2" points="0,205.6 40.8,102.8 0,0 618.9,0 618.9,205.6 "/>
<g>
	<path class="st3" d="M191.3,91.8c-0.6-2-1.2-3.9-2-5.7c-0.7-1.8-1.4-3.4-2.1-4.9c-0.7-1.5-1.2-2.7-1.8-3.7c-0.5-1-0.9-1.7-1.1-2.1
		l-12.6,7c1.1,2,2.2,4,3.2,6c1,2,1.9,3.9,2.6,5.7c0.8,1.8,1.4,3.5,1.8,5.1c0.4,1.6,0.7,2.9,0.7,4.1c0,1.4-0.2,2.7-0.6,3.7
		c-0.4,1.1-0.9,2-1.6,2.7c-0.7,0.7-1.4,1.3-2.3,1.7c-0.9,0.4-1.8,0.6-2.9,0.6c-1.2-0.4-2.3-1.1-3.1-2.2c-0.8-1-1.5-2.2-2.1-3.6
		c-0.6-1.4-1-2.9-1.3-4.5c-0.3-1.6-0.6-3.2-0.8-4.8c-0.2-1.6-0.4-3.1-0.6-4.5c-0.2-1.4-0.4-2.7-0.6-3.7l-13.6,1.8
		c0.1,1.2,0.2,2.5,0.4,4c0.1,1.4,0.3,2.9,0.3,4.4c0.1,1.5,0,2.9-0.1,4.4c-0.1,1.4-0.4,2.7-0.8,3.9c-0.4,1.2-1.1,2.1-1.9,2.9
		c-0.9,0.8-2,1.3-3.4,1.5c-1.2,0.2-2.4,0-3.4-0.6c-1.1-0.6-2.1-1.4-3.1-2.5c-1-1.1-1.9-2.4-2.9-4c-0.9-1.5-1.8-3.2-2.7-5
		c-0.9-1.8-1.7-3.7-2.6-5.6c-0.9-2-1.7-3.9-2.6-5.9l-13.5,7.6c1.1,2.4,2.3,4.7,3.5,7.1c1.2,2.4,2.3,4.7,3.3,7c1,2.3,1.8,4.6,2.4,6.9
		c0.6,2.3,0.9,4.5,0.9,6.7c0,3-0.4,5.7-1.2,8.3l0-0.1c-0.7,1.9-1.7,3.6-3.3,5.2c-1.5,1.6-3.4,2.9-5.6,4c-2.2,1.1-4.8,2-7.6,2.6
		c-2.9,0.6-6,0.9-9.4,0.9c-3,0-5.8-0.5-8.5-1.4c-2.6-1-4.9-2.3-6.9-3.9c-2-1.7-3.5-3.6-4.6-5.8c-1.1-2.2-1.6-4.6-1.5-7
		c0-2.1,0.3-4.2,0.8-6.5c0.5-2.2,1.2-4.5,2.1-6.7c0.9-2.2,1.8-4.4,3-6.6c1.1-2.2,2.3-4.2,3.4-6.2l-10.7-8.3
		c-1.4,2.1-2.8,4.5-4.2,7.2c-1.4,2.7-2.6,5.5-3.7,8.5c-1.1,3-2,6-2.7,9.1c-0.7,3.1-1.1,6.1-1.2,9.1c0,5.1,0.9,9.8,2.6,14
		c1.7,4.2,4.2,7.8,7.3,10.8c3.1,3,6.8,5.3,11.1,7c4.3,1.7,8.9,2.5,13.9,2.5c3.3,0,6.5-0.3,9.8-0.9c3.3-0.6,6.5-1.5,9.5-2.7
		c3-1.2,5.8-2.7,8.5-4.6c2.6-1.8,4.9-4,6.9-6.5c2-2.5,3.5-5.3,4.6-8.5c1.1-3.2,1.7-6.7,1.7-10.5c1,0.3,2,0.5,3.2,0.7
		c1.1,0.2,2.4,0.3,3.8,0.3c2,0,3.7-0.1,5.1-0.4c1.4-0.3,2.7-0.6,3.7-1.2c1.1-0.5,2-1.1,2.8-1.8s1.5-1.5,2.2-2.4
		c1.2,1.8,2.8,3.2,4.8,4.2c1.9,1,4.4,1.5,7.4,1.5c3.5,0,6.6-0.6,9.2-1.8c2.7-1.2,4.9-2.9,6.7-5c1.8-2.1,3.2-4.5,4.1-7.4
		c0.9-2.8,1.4-5.9,1.5-9.1c0-1.9-0.2-3.9-0.6-6C192.4,95.8,191.9,93.8,191.3,91.8z"/>
	
		<rect x="150.8" y="44.6" transform="matrix(0.7071 -0.7072 0.7072 0.7071 10.0554 125.9107)" class="st3" width="12.4" height="12.5"/>
	<polygon class="st3" points="157,65.2 166.3,74.6 175.8,65.1 166.2,55.6 157,64.8 147.6,55.5 138.1,65 147.7,74.5 	"/>
	<path class="st3" d="M245,121c0.3-2.6,0.3-5.4,0-8.5c-0.3-3.1-0.8-6.1-1.7-9.2c-0.8-3.1-1.9-6-3.3-8.9s-3-5.4-5-7.5
		c-1.9-2.2-4.1-3.9-6.6-5.2s-5.3-2-8.3-2c-2.1,0-4.1,0.4-5.9,1.2s-3.5,1.8-5,3.2c-1.5,1.3-2.9,2.9-4.1,4.7c-1.2,1.8-2.2,3.7-3,5.7
		c-0.8,2-1.4,4.1-1.8,6.2c-0.4,2.1-0.6,4.2-0.6,6.2c0,3.2,0.5,5.9,1.6,8.4c1.1,2.4,2.5,4.5,4.5,6.2s4.2,3,6.9,4
		c2.7,1,5.6,1.6,8.9,1.8c1,0.1,2.3,0.1,3.9,0.2c1.6,0,3.1,0.1,4.5,0.1c-0.8,2-2.1,4-4,5.9c-1.9,1.9-4.3,3.8-7.1,5.5
		c-2.9,1.7-6.2,3.3-10,4.7c-3.8,1.4-8,2.6-12.7,3.5l3.6,15.1c3.8-0.6,7.5-1.5,11.2-2.7c3.6-1.2,7.1-2.7,10.3-4.4
		c3.2-1.8,6.2-3.8,9-6.1c2.8-2.3,5.2-4.9,7.3-7.7c2.1-2.8,3.8-5.9,5.1-9.3C243.7,128.4,244.6,124.8,245,121z M227.9,111.8
		c-1.2,0-2.5,0-3.8-0.1c-1.3-0.1-2.7-0.2-4.1-0.5c-1.4-0.2-2.6-0.6-3.7-1.1c-1.1-0.5-2-1.1-2.7-1.8c-0.7-0.7-1-1.7-1-2.8
		c0-1.1,0.3-2.3,0.8-3.6c0.5-1.2,1.1-2.4,1.9-3.4c0.8-1,1.6-1.9,2.5-2.5c0.9-0.6,1.7-0.8,2.4-0.7c1.4,0.3,2.6,0.9,3.7,1.9
		c1.1,1,2.1,2.2,3,3.7c0.9,1.5,1.7,3.2,2.3,5c0.7,1.9,1.3,3.8,1.7,5.9H227.9z"/>
	<path class="st3" d="M329.7,84.4c-0.9-2.5-1.9-4.8-3.2-7c-1.3-2.2-2.8-4.2-4.5-5.9c-1.7-1.7-3.7-3-5.8-4c-2.2-1-4.5-1.5-7.1-1.5
		c-2.1,0-4,0.4-5.7,1.1c-1.8,0.7-3.3,1.7-4.8,3c-1.4,1.2-2.7,2.7-3.8,4.4c-1.1,1.7-2,3.4-2.7,5.3c-0.7,1.9-1.3,3.7-1.7,5.7
		c-0.4,1.9-0.5,3.8-0.5,5.6c0,3.9,0.8,7.1,2.2,9.4c1.5,2.3,3.5,4.1,6.1,5.3c2.6,1.2,5.7,1.9,9.3,2.1c3.6,0.2,7.5,0.1,11.9-0.3
		c-1,0.7-2.3,1.3-3.8,1.8s-3.2,0.9-5.1,1.2s-3.8,0.6-5.8,0.7c-2,0.2-4,0.3-6,0.4c-2,0.1-3.8,0.1-5.5,0.1c-1.7,0-3.2,0-4.4,0h-0.9
		c-1,0-2-0.3-3.1-1c-1-0.6-2.1-1.7-3.2-3.3c-1.1-1.6-2.3-3.7-3.5-6.3c-1.2-2.6-2.5-5.9-3.8-9.9l-14.2,6.2c0.9,1.9,1.7,4,2.7,6.3
		c0.9,2.3,1.8,4.6,2.5,6.9c0.8,2.3,1.4,4.4,1.9,6.4c0.5,2,0.7,3.6,0.7,4.9c0,1.9-0.4,3.9-1.2,5.7c-0.8,1.9-1.9,3.7-3.3,5.5
		c-1.4,1.8-3,3.6-4.9,5.2c-1.9,1.7-3.9,3.3-6,4.9c-2.2,1.6-4.4,3-6.8,4.4s-4.7,2.7-7,3.9l9,12.5c4.2-2.1,8.2-4.6,12-7.2
		s7.1-5.6,10-8.8c2.9-3.2,5.4-6.6,7.4-10.3c2-3.7,3.3-7.5,4.1-11.6c1.5,0.6,2.9,1,4,1.1c0.7,0.1,1.3,0.1,1.9,0.1v0h1h0.8h0.2v0
		c3.7,0,7.3-0.1,10.9-0.4c3.6-0.3,7-0.8,10.3-1.6c3.2-0.8,6.2-1.8,8.9-3.1c2.7-1.3,5.1-3,7-5.1c2-2.1,3.5-4.6,4.6-7.5
		c1.1-2.9,1.7-6.4,1.7-10.3c0-2.4-0.2-4.8-0.6-7.4C331.2,89.4,330.5,86.9,329.7,84.4z M315.3,94.9c-1,0.1-2.1,0.1-3.3,0.1
		c-1.2,0-2.3-0.1-3.5-0.2s-2.3-0.4-3.2-0.8s-1.7-0.9-2.3-1.5c-0.6-0.6-0.9-1.4-0.9-2.4c0-1.1,0.2-2.1,0.7-3.1c0.4-1,1-1.9,1.7-2.7
		c0.7-0.8,1.4-1.4,2.2-1.9s1.6-0.7,2.3-0.7c1.3,0.1,2.4,0.5,3.4,1.3c1,0.8,1.8,1.9,2.6,3.1c0.7,1.2,1.3,2.6,1.8,4.1
		c0.5,1.5,0.9,3,1.2,4.5C317.2,94.8,316.4,94.8,315.3,94.9z"/>
	
		<rect x="300.9" y="42.3" transform="matrix(0.7071 -0.7071 0.7071 0.7071 55.0245 232.8504)" class="st3" width="15.5" height="15.5"/>
	<polygon class="st3" points="464,69.8 473.4,79.2 482.8,69.7 473.3,60.2 464,69.4 454.6,60.1 445.2,69.6 454.7,79.1 	"/>
	
		<rect x="457.8" y="49.2" transform="matrix(0.7071 -0.7071 0.7071 0.7071 96.7324 344.3376)" class="st3" width="12.4" height="12.5"/>
	<polygon class="st3" points="529.3,141.4 519.9,132 510.5,141.5 520,151 529.3,141.8 538.7,151.1 548.1,141.6 538.6,132.1 	"/>
	
		<rect x="565.7" y="151.7" transform="matrix(0.7071 -0.7072 0.7072 0.7071 55.8258 450.7086)" class="st3" width="12.4" height="12.5"/>
	<path class="st3" d="M563.8,127.3c3.9,0,7.6-0.4,11.1-1.2c3.5-0.8,6.5-2.1,9-3.9c2.6-1.8,4.6-4.1,6.1-6.9c1.5-2.8,2.2-6.3,2.2-10.4
		c0-2.2-0.2-4.4-0.7-6.8c-0.4-2.4-1-4.8-1.7-7.2c-0.7-2.4-1.5-4.8-2.4-7.1c-0.9-2.3-1.8-4.5-2.7-6.6l-14.1,7c1,1.9,1.9,3.9,2.9,6
		c1,2.1,1.8,4.1,2.6,6c0.8,1.9,1.4,3.7,1.9,5.2c0.5,1.6,0.7,2.7,0.7,3.5c0,1.5-0.5,2.7-1.5,3.6c-1,0.9-2.3,1.6-3.7,2
		c-1.5,0.5-3.1,0.8-4.8,0.9c-1.7,0.1-3.3,0.2-4.7,0.2H554h-1.1c-1.4,0-2.6-0.3-3.4-0.9c-0.9-0.6-1.6-1.3-2-2.2
		c-0.5-0.9-0.8-1.8-1.1-2.9s-0.4-2-0.5-2.9c-0.2-1.4-0.4-2.7-0.5-3.8c-0.2-1.2-0.4-2.3-0.6-3.5c-0.2-1.1-0.5-2.3-0.7-3.5
		c-0.3-1.2-0.6-2.6-1-4L528.7,92c0.3,1.2,0.6,2.6,1,3.9c0.4,1.4,0.6,2.7,0.8,4.1c0.1,1.4,0.1,2.7,0,4c-0.2,1.3-0.6,2.4-1.4,3.5
		c-0.6,0.8-1.4,1.5-2.3,2c-1,0.5-2.1,1-3.5,1.3c-1.4,0.3-3,0.6-4.9,0.7c-1.9,0.1-4,0.2-6.3,0.2h-1.3c-1.1,0-2.1-0.2-3.1-0.5
		s-1.9-0.9-2.7-1.7c-0.8-0.7-1.5-1.7-2.1-2.8c-0.6-1.1-1-2.4-1.3-3.9c-0.3-1.4-0.5-2.7-0.6-3.6c-0.1-1-0.3-1.9-0.4-2.9
		c-0.1-0.9-0.2-2-0.3-3.1c-0.1-1.2-0.2-2.6-0.3-4.4l-13.4,1.9c0,0.8,0,1.4,0,1.7c0,0.3,0,0.6,0,0.9c0,0.2,0,0.5,0,0.8
		c0,0.3,0,0.8,0,1.6c0,1.8-0.1,3.7-0.4,5.6c-0.3,1.9-0.7,3.7-1.3,5.2c-0.6,1.6-1.3,2.9-2.1,3.9c-0.8,1-1.8,1.5-2.9,1.5
		c-1.1,0-2.1-0.4-2.9-1.3c-0.8-0.9-1.5-2-2.1-3.4c-0.6-1.4-1.1-3-1.5-4.7c-0.4-1.7-0.7-3.5-0.9-5.2c-0.2-1.7-0.4-3.3-0.4-4.8
		c-0.1-1.5-0.1-2.7-0.1-3.6l-14,1.9l0.3,8.5c0,1.6-0.1,3.1-0.2,4.5c-0.1,1.4-0.4,2.7-0.8,3.8c-0.4,1.1-1,2-1.8,2.7
		c-0.8,0.7-1.8,1.1-3.1,1.1c-1.6,0.1-3.1-0.6-4.6-1.8c-1.5-1.3-2.9-3-4.3-5.2c-1.4-2.2-2.7-4.6-4-7.3c-1.3-2.7-2.5-5.5-3.7-8.3
		L422,96.1c1.3,2.3,2.6,4.7,3.8,7c1.2,2.3,2.3,4.6,3.3,6.9c1,2.3,1.8,4.5,2.3,6.6c0.6,2.2,0.9,4.2,0.9,6.2c0,2.7-0.4,5-1.1,7.1
		c-0.7,2.1-1.8,3.9-3.1,5.5c-1.3,1.6-2.8,2.9-4.6,4c-1.8,1.1-3.7,2-5.7,2.7c-2.1,0.7-4.2,1.2-6.5,1.5c-2.3,0.3-4.5,0.5-6.8,0.5
		c-3,0-5.8-0.5-8.4-1.5c-2.6-1-4.9-2.3-6.8-3.9c-1.9-1.7-3.4-3.6-4.5-5.8c-1.1-2.2-1.6-4.6-1.5-7.1c0-2.1,0.2-4.2,0.7-6.5
		c0.5-2.2,1.1-4.5,1.9-6.7c0.8-2.2,1.7-4.4,2.8-6.6c1.1-2.2,2.2-4.2,3.4-6.2l-10.7-8.2c-1.4,2.1-2.8,4.5-4.2,7.2
		c-1.4,2.7-2.6,5.5-3.7,8.5c-1.1,3-2,6-2.7,9.1c-0.7,3.1-1.1,6.1-1.2,9.1c0,5.1,0.9,9.8,2.6,14c1.7,4.2,4.2,7.8,7.3,10.8
		c3.1,3,6.8,5.3,11.1,7c4.3,1.7,8.9,2.5,13.9,2.5c3.3,0,6.5-0.3,9.8-0.9c3.3-0.6,6.5-1.5,9.5-2.7c3-1.2,5.8-2.7,8.5-4.6
		c2.6-1.8,4.9-4,6.9-6.5c2-2.5,3.5-5.3,4.6-8.5c1.1-3.2,1.7-6.7,1.8-10.5c1,0.3,2,0.5,3.2,0.7c1.2,0.2,2.4,0.3,3.8,0.3
		c2,0,3.7-0.1,5.1-0.4c1.4-0.3,2.7-0.7,3.7-1.2c1.1-0.5,2-1.1,2.8-1.8c0.8-0.7,1.5-1.5,2.2-2.4c1.2,1.6,2.8,3,4.8,4.1
		c1.9,1.1,4.3,1.6,7.1,1.6c3.4,0,6.4-0.6,9.1-1.9c2.7-1.3,4.9-3,6.7-5.3c2,2.6,4.4,4.4,7.1,5.6c2.8,1.2,6,1.8,9.7,1.8l1-0.1v0
		c2.2,0,4.5-0.1,6.8-0.2c2.4-0.1,4.6-0.4,6.9-0.7c2.2-0.4,4.3-0.9,6.3-1.6c2-0.7,3.8-1.6,5.3-2.8c0.8,0.8,1.8,1.5,2.9,2.1
		c1.1,0.7,2.4,1.2,3.7,1.7c1.3,0.5,2.8,0.8,4.3,1.1c1.3,0.2,2.5,0.3,3.8,0.4v0h0.8h1.1H563.8z"/>
	<polygon class="st3" points="571.9,143.6 562.6,134.2 553.1,143.7 562.7,153.2 571.9,144 581.3,153.3 590.8,143.8 581.2,134.3 	"/>
</g>
</svg>
